<?xml version="1.0" encoding="UTF-8"?>
<svg id="Layer_1" xmlns="http://www.w3.org/2000/svg" version="1.1" viewBox="0 0 800 250">
  <!-- Generator: Adobe Illustrator 29.1.0, SVG Export Plug-In . SVG Version: 2.1.0 Build 142)  -->
  <defs>
    <style>
      .st0 {
        fill: #46596f;
      }
    </style>
  </defs>
  <g>
    <path class="st0" d="M156.99,147.78c-2.52-9.04,1.89-18.62,10.32-24.51-25.31,12.81-23.56,40.6,8.03,40.06-2.62-.58-4.98-1.45-7.07-2.55-5.49-2.68-9.66-7.19-11.27-12.99Z"/>
    <path class="st0" d="M167.06,94.62c-6.26,2.06-5.53,1.97-7.91,7.98-3.72,9.32-12.58,17.14-24.19,20.07l-50.42,12.73c-4.25,1.13-6.26-6.72-2.01-7.77l50.1-12.68c4.25-1.05,2.33-8.89-1.93-7.76l-50.1,12.68c-4.25,1.05-6.25-6.72-2-7.85l50.1-12.68c4.25-1.05,2.32-8.81-2-7.77l-50.02,12.69c-4.33,1.04-6.26-6.72-2-7.85l50.09-12.6c4.25-1.13,2.25-8.9-2-7.85l-50.1,12.68c-4.25,1.05-6.18-6.71-1.92-7.84l50.42-12.73c12.26-3.11,24.5.08,32.06,7.39,3.38,3.18,4.98,4.05,9.73,2.72,28.34-7.8,80.53-23.32,109.27-12.79-17.68-12.71-47.12-9.49-67.27-5.65,9.13-4.68,20.39-8.2,33.84-10.41C190.74-13.56,92.98-14.89,43.95,50.82c-66.76,89.48,38.4,115.68,87.43,91.89,7.6-3.7,8.04-3.26,13.09-10.46,16.79-23.94,71.55-28.21,77.51,1.08,6.29,30.83-54.93,50.8-76.9,26.36-1.96-2.18-4.97-2.45-7.76-1.59-32.24,10.39-95.54,30.33-129.22,17.92,17.69,12.71,47.12,9.49,67.27,5.65-8.97,4.69-21.38,8.51-34.76,10.8,45.64,67.79,147.96,73.37,199.27,4.6,56.48-75.65-3.5-125.35-72.82-102.45Z"/>
  </g>
  <g>
    <path class="st0" d="M342.92,208.05h-4.54c-4.17,0-7.36,1.81-7.36,4.09v25.48h-6.38v-32.73h4.41l1.1,2.55c2.08-1.74,6.25-2.88,12.75-2.88v3.49Z"/>
    <path class="st0" d="M386.94,226.42v4.29c0,4.02-5.89,7.24-13.24,7.24s-13.24-3.22-13.24-7.24v-18.91c0-4.02,5.89-7.24,13.24-7.24s13.24,3.22,13.24,7.24v10.06h-20.11v8.85c0,2.08,3.07,3.75,6.87,3.75s6.87-1.68,6.87-3.75v-3.89l6.38-.4ZM366.83,218.38h13.73v-6.57c0-2.08-3.07-3.75-6.87-3.75s-6.87,1.68-6.87,3.75v6.57Z"/>
    <path class="st0" d="M426.79,227.9c0-1.88-2.08-2.82-2.08-2.82l-13.24-6.04s-4.29-1.95-4.29-5.5v-2.01c0-3.82,5.76-6.97,12.75-6.97s12.75,3.15,12.75,6.97v3.02l-6.38.4v-3.42c0-1.95-2.82-3.49-6.38-3.49s-6.38,1.54-6.38,3.49v2.01c0,1.88,2.08,2.82,2.08,2.82l13.24,6.04s4.29,1.95,4.29,5.5v2.82c0,4.02-5.89,7.24-13.24,7.24s-13.24-3.22-13.24-7.24v-3.22l6.38-.4v3.62c0,2.08,3.07,3.75,6.87,3.75s6.87-1.68,6.87-3.75v-2.82ZM419.93,201.54l-8.34-2.95v-3.49l8.34,2.95,8.34-2.95v3.49l-8.34,2.95Z"/>
    <path class="st0" d="M450.46,204.9h7.73v-6.3l6.38-.4v6.71h7.72v3.49h-7.72v24.75c0,.74,1.1,1.34,2.45,1.34v3.49c-4.9,0-8.83-2.15-8.83-4.83v-24.75h-7.73v-3.49Z"/>
    <path class="st0" d="M515.45,232.93c0,.67.98,1.21,2.21,1.21v3.49c-2.58,0-4.9-.6-6.5-1.54-2.33,1.21-5.52,1.88-8.95,1.88-7.36,0-13.24-3.22-13.24-7.24v-3.69c0-3.35,5.39-5.03,5.39-5.03l9.44-2.95s5.27-1.68,5.27-4.36v-3.29c0-1.88-2.7-3.35-6.13-3.35s-6.13,1.47-6.13,3.35v3.89l-6.38.4v-4.29c0-3.75,5.64-6.84,12.51-6.84s12.51,3.08,12.51,6.84v21.53ZM495.34,230.72c0,2.08,3.07,3.75,6.87,3.75s6.87-1.68,6.87-3.75v-9.52c-.98.54-2.08.87-2.08.87l-9.44,2.95s-2.21.67-2.21,2.01v3.69Z"/>
    <path class="st0" d="M564.74,204.9v32.73h-4.41l-1.1-2.55c-2.08,1.74-5.52,2.88-9.32,2.88-6.38,0-11.65-3.22-11.65-7.24v-25.82h6.38v25.82c0,2.08,3.07,3.75,6.87,3.75s6.87-1.68,6.87-3.75v-25.82h6.38Z"/>
    <path class="st0" d="M605.82,208.05h-4.54c-4.17,0-7.36,1.81-7.36,4.09v25.48h-6.38v-32.73h4.41l1.1,2.55c2.08-1.74,6.25-2.88,12.75-2.88v3.49Z"/>
    <path class="st0" d="M648.37,232.93c0,.67.98,1.21,2.21,1.21v3.49c-2.58,0-4.91-.6-6.5-1.54-2.33,1.21-5.52,1.88-8.95,1.88-7.36,0-13.24-3.22-13.24-7.24v-3.69c0-3.35,5.4-5.03,5.4-5.03l9.44-2.95s5.27-1.68,5.27-4.36v-3.29c0-1.88-2.7-3.35-6.13-3.35s-6.13,1.47-6.13,3.35v3.89l-6.38.4v-4.29c0-3.75,5.64-6.84,12.51-6.84s12.51,3.08,12.51,6.84v21.53ZM628.26,230.72c0,2.08,3.07,3.75,6.87,3.75s6.87-1.68,6.87-3.75v-9.52c-.98.54-2.08.87-2.08.87l-9.44,2.95s-2.21.67-2.21,2.01v3.69ZM629.85,201.54v-3.49l12.02-2.95v3.49l-12.02,2.95Z"/>
    <path class="st0" d="M697.05,226.83v3.89c0,4.02-5.89,7.24-13.24,7.24s-13.24-3.22-13.24-7.24v-18.91c0-4.02,5.89-7.24,13.24-7.24s13.24,3.22,13.24,7.24v3.82l-6.38.4v-4.23c0-2.08-3.07-3.75-6.87-3.75s-6.87,1.68-6.87,3.75v18.91c0,2.08,3.07,3.75,6.87,3.75s6.87-1.68,6.87-3.75v-3.89h6.38Z"/>
    <path class="st0" d="M718.26,196.45h6.38v4.69h-6.38v-4.69ZM724.64,204.9h-6.38v32.73h6.38v-32.73Z"/>
    <path class="st0" d="M771.97,232.93c0,.67.98,1.21,2.21,1.21v3.49c-2.57,0-4.9-.6-6.5-1.54-2.33,1.21-5.52,1.88-8.95,1.88-7.36,0-13.24-3.22-13.24-7.24v-3.69c0-3.35,5.4-5.03,5.4-5.03l9.44-2.95s5.27-1.68,5.27-4.36v-3.29c0-1.88-2.7-3.35-6.13-3.35s-6.13,1.47-6.13,3.35v3.89l-6.38.4v-4.29c0-3.75,5.64-6.84,12.51-6.84s12.51,3.08,12.51,6.84v21.53ZM751.86,230.72c0,2.08,3.07,3.75,6.87,3.75s6.87-1.68,6.87-3.75v-9.52c-.98.54-2.08.87-2.08.87l-9.44,2.95s-2.21.67-2.21,2.01v3.69Z"/>
  </g>
  <g>
    <path class="st0" d="M358.32,46v103.76h47.4v11.58h-80.86V46h33.46Z"/>
    <path class="st0" d="M525.47,46v77.4c0,26.53-14.67,39.8-44.02,39.8s-43.85-13.27-43.85-39.8V46h33.46v78.41c0,10.14,1.45,17.07,4.35,20.79,2.9,3.72,8.27,5.58,16.1,5.58,15.15,0,22.73-9.13,22.73-27.38V46h11.24Z"/>
    <path class="st0" d="M653.92,46v115.34h-25.6l-48.16-73v73h-11.24V46h21.21l52.56,78.83V46h11.24Z"/>
    <path class="st0" d="M751.53,46l32.11,115.34h-33.63l-6.84-25.01h-34.73l-7.35,25.01h-13.1l34.14-115.34h29.4ZM711.73,124.75h28.31l-13.6-51.12-14.7,51.12Z"/>
  </g>
</svg>